<?xml version="1.0" standalone="no"?>
<!DOCTYPE svg PUBLIC "-//W3C//DTD SVG 20010904//EN"
 "http://www.w3.org/TR/2001/REC-SVG-20010904/DTD/svg10.dtd">
<svg version="1.0" xmlns="http://www.w3.org/2000/svg"
 width="651.000000pt" height="709.000000pt" viewBox="0 0 651.000000 709.000000"
 preserveAspectRatio="xMidYMid meet">

<g transform="translate(0.000000,709.000000) scale(0.100000,-0.100000)"
fill="#000000" stroke="none">
<path d="M3035 6959 c-449 -57 -863 -258 -1180 -574 -153 -152 -261 -298 -370
-500 -217 -402 -484 -776 -819 -1150 -188 -208 -312 -405 -405 -640 -105 -266
-158 -600 -133 -847 83 -851 824 -1981 1702 -2596 380 -267 752 -424 1153
-489 140 -22 445 -22 588 1 558 87 1077 357 1581 822 598 551 1093 1369 1233
2035 63 301 39 655 -67 974 -97 295 -224 499 -514 826 -282 319 -508 640 -721
1023 -114 203 -168 286 -267 403 -333 399 -805 654 -1321 713 -106 12 -360 11
-460 -1z m207 -1249 c181 -98 355 -215 379 -253 10 -18 19 -48 19 -67 -1 -49
-39 -137 -92 -212 l-45 -63 -27 -198 c-16 -109 -26 -201 -23 -203 8 -9 248 86
362 144 167 83 155 85 460 -82 402 -221 399 -219 399 -311 0 -57 -17 -95 -73
-159 -21 -25 -44 -60 -49 -78 -6 -18 -13 -150 -16 -293 -5 -266 -27 -556 -72
-955 -75 -672 -154 -1031 -285 -1294 -73 -146 -146 -226 -278 -306 -70 -41
-92 -50 -131 -50 -31 0 -55 6 -68 18 -11 10 -96 213 -201 484 -222 571 -222
549 -9 463 123 -50 143 -53 177 -29 57 41 180 422 230 720 61 358 85 783 61
1087 -10 131 -24 167 -79 204 -56 38 -102 38 -317 1 l-199 -34 -13 -65 c-32
-154 -116 -487 -163 -644 -152 -509 -350 -911 -588 -1197 -306 -365 -703 -510
-1089 -396 -83 24 -94 46 -39 74 17 9 77 47 132 85 578 392 982 1041 1181
1898 19 84 34 155 32 157 -2 2 -46 -3 -98 -11 -190 -28 -396 -47 -450 -41
-154 18 -257 123 -295 301 -31 146 -27 150 138 142 181 -8 640 15 753 38 19 4
22 16 33 132 28 284 25 717 -6 959 -10 82 37 117 149 111 60 -4 79 -11 200
-77z"/>
</g>
</svg>
